<svg xmlns="http://www.w3.org/2000/svg" viewBox="0 0 64 64" role="img" aria-label="Gaia"><title>Gaia</title><circle cx="32" cy="32" r="30" fill="#f4ecd6"/><circle cx="32" cy="32" r="28.2" fill="none" stroke="#5c9c3a" stroke-width="3.6" opacity="0.9"/><path d="M17 47C10.7 33.3 24.2 20.7 43.6 19.6C42.2 33.1 30 47.6 17 47Z" fill="#6fb043"/><path d="M43.6 19.6C42.2 33.1 30 47.6 17 47C28.2 34.1 39.5 23.1 43.6 19.6Z" fill="#2f6a24" opacity="0.32"/><path d="M17 47C14.7 38.5 24.7 28.7 37.3 26.1C33.3 34 23.7 44.9 17 47Z" fill="#b5de7c" opacity="0.55"/><path d="M17 47C10.7 33.3 24.2 20.7 43.6 19.6C42.2 33.1 30 47.6 17 47Z" fill="none" stroke="#2f6a24" stroke-width="1.8" opacity="0.8" stroke-linejoin="round"/></svg>
